<svg viewBox="0 0 512 512" xmlns="http://www.w3.org/2000/svg"><path d="m512 91-30 30h-452l-30-30 56.5-84.402344c2.699219-4.199218 7.5-6.597656 12.601562-6.597656h374.796876c5.101562 0 9.902343 2.398438 12.601562 6.597656zm0 0" fill="#fdbf00"/><path d="m512 91-30 30h-226v-121h187.898438c5.101562 0 9.902343 2.398438 12.601562 6.597656zm0 0" fill="#ff9f00"/><path d="m0 91v406c0 8.398438 6.597656 15 15 15h482c8.402344 0 15-6.601562 15-15v-406zm0 0" fill="#ffe470"/><path d="m512 91v406c0 8.398438-6.597656 15-15 15h-241v-421zm0 0" fill="#ffd400"/><path d="m196 452c-8.289062 0-15-6.710938-15-15v-90c0-8.289062 6.710938-15 15-15s15 6.710938 15 15v90c0 8.289062-6.710938 15-15 15zm0 0" fill="#725d57"/><path d="m316 452c-8.289062 0-15-6.710938-15-15v-90c0-8.289062 6.710938-15 15-15s15 6.710938 15 15v90c0 8.289062-6.710938 15-15 15zm0 0" fill="#68544f"/><path d="m361 437c0 8.398438-6.597656 15-15 15h-180c-8.402344 0-15-6.601562-15-15 0-8.402344 6.597656-15 15-15h180c8.402344 0 15 6.597656 15 15zm0 0" fill="#725d57"/><path d="m226 362c-3.839844 0-7.675781-1.464844-10.605469-4.394531l-19.394531-19.394531-19.394531 19.394531c-5.859375 5.859375-15.351563 5.859375-21.210938 0s-5.859375-15.351563 0-21.210938l30-30c5.859375-5.859375 15.351563-5.859375 21.210938 0l30 30c5.859375 5.859375 5.859375 15.351563 0 21.210938-2.929688 2.929687-6.765625 4.394531-10.605469 4.394531zm0 0" fill="#725d57"/><path d="m346 362c-3.839844 0-7.675781-1.464844-10.605469-4.394531l-19.394531-19.394531-19.394531 19.394531c-5.859375 5.859375-15.351563 5.859375-21.210938 0s-5.859375-15.351563 0-21.210938l30-30c5.859375-5.859375 15.351563-5.859375 21.210938 0l30 30c5.859375 5.859375 5.859375 15.351563 0 21.210938-2.929688 2.929687-6.765625 4.394531-10.605469 4.394531zm0 0" fill="#68544f"/><path d="m331 196c0 16.5-13.5 30-30 30h-90c-16.5 0-30-13.5-30-30s13.5-30 30-30h90c16.5 0 30 13.5 30 30zm0 0" fill="#ff4b00"/><path d="m301 226h-45v-60h45c16.5 0 30 13.5 30 30s-13.5 30-30 30zm0 0" fill="#d03b00"/><path d="m361 437c0 8.398438-6.597656 15-15 15h-90v-30h90c8.402344 0 15 6.597656 15 15zm0 0" fill="#68544f"/></svg>