<?xml version="1.0" encoding="iso-8859-1"?>
<!-- Generator: Adobe Illustrator 19.0.0, SVG Export Plug-In . SVG Version: 6.00 Build 0)  -->
<svg version="1.1" id="Capa_1" xmlns="http://www.w3.org/2000/svg" xmlns:xlink="http://www.w3.org/1999/xlink" x="0px" y="0px"
	 viewBox="0 0 512 512" style="enable-background:new 0 0 512 512;" xml:space="preserve">
<path style="fill:#656D78;" d="M128,372c26.488,0,48,21.512,48,48c0,26.56-21.512,48-48,48c-26.56,0-48-21.44-48-48
	C80,393.512,101.44,372,128,372z M144,420c0-8.8-7.192-16-16-16c-8.88,0-16,7.2-16,16c0,8.872,7.12,16,16,16
	C136.808,436,144,428.872,144,420z"/>
<g>
	<path style="fill:#CCD1D9;" d="M128,404c8.808,0,16,7.2,16,16c0,8.872-7.192,16-16,16c-8.88,0-16-7.128-16-16
		C112,411.2,119.12,404,128,404z"/>
	<path style="fill:#CCD1D9;" d="M392,404c8.808,0,16,7.2,16,16c0,8.872-7.192,16-16,16c-8.88,0-16-7.128-16-16
		C376,411.2,383.12,404,392,404z"/>
</g>
<path style="fill:#656D78;" d="M344,420c0-26.488,21.44-48,48-48c26.488,0,48,21.512,48,48c0,26.56-21.512,48-48,48
	C365.44,468,344,446.56,344,420z M408,420c0-8.8-7.192-16-16-16c-8.88,0-16,7.2-16,16c0,8.872,7.12,16,16,16
	C400.808,436,408,428.872,408,420z"/>
<path style="fill:#5D9CEC;" d="M448,188l48,104h-96c-17.76,0-32-14.32-32-32v-72H448z"/>
<path style="fill:#A0D468;" d="M24,284h96h96h112v-96h40v72c0,17.68,14.24,32,32,32h96v56v40h8v32h-64c0-26.488-21.512-48-48-48
	c-26.56,0-48,21.512-48,48H176c0-26.488-21.512-48-48-48c-26.56,0-48,21.512-48,48l-56,0.16V388H8V284H24z"/>
<polygon style="fill:#8CC152;" points="496,388 496,348 496,292 464,292 464,420 504,420 504,388 "/>
<polygon style="fill:#4A89DC;" points="496,292 448,188 416,188 464,292 "/>
<g>
	<rect x="56" y="164" style="fill:#ED5565;" width="32" height="24"/>
	<rect x="256" y="44" style="fill:#ED5565;" width="32" height="40"/>
</g>
<polygon style="fill:#FFD2A6;" points="328,188 328,284 216,284 216,204 216,108 216,44 256,44 256,84 288,84 288,44 328,44 "/>
<polygon style="fill:#F7C292;" points="168,108 216,108 216,204 168,204 120,204 120,164 120,108 "/>
<polygon style="fill:#EAB081;" points="168,204 216,204 216,284 120,284 120,204 "/>
<polygon style="fill:#FFD2A6;" points="56,164 56,188 88,188 88,164 120,164 120,204 120,284 24,284 24,164 "/>
<path d="M328,52H216c-4.424,0-8-3.584-8-8s3.576-8,8-8h112c4.424,0,8,3.584,8,8S332.424,52,328,52z"/>
<path d="M288,92c-4.424,0-8-3.584-8-8V44c0-4.416,3.576-8,8-8s8,3.584,8,8v40C296,88.416,292.424,92,288,92z"/>
<path d="M288,92h-32c-4.424,0-8-3.584-8-8s3.576-8,8-8h32c4.424,0,8,3.584,8,8S292.424,92,288,92z"/>
<path d="M256,92c-4.424,0-8-3.584-8-8V44c0-4.416,3.576-8,8-8c4.424,0,8,3.584,8,8v40C264,88.416,260.424,92,256,92z"/>
<path d="M216,212h-96c-4.424,0-8-3.584-8-8s3.576-8,8-8h96c4.424,0,8,3.584,8,8S220.424,212,216,212z"/>
<path d="M328,332c-4.424,0-8-3.576-8-8V188c0-4.416,3.576-8,8-8s8,3.584,8,8v136C336,328.424,332.424,332,328,332z"/>
<path d="M504,396h-23.832c-4.424,0-8-3.576-8-8s3.576-8,8-8H504c4.424,0,8,3.576,8,8S508.424,396,504,396z"/>
<path d="M504,428c-4.424,0-8-3.576-8-8v-32c0-4.424,3.576-8,8-8s8,3.576,8,8v32C512,424.424,508.424,428,504,428z"/>
<path d="M24,428.168c-4.408,0-7.984-3.56-8-7.976c-0.016-4.424,3.552-8.008,7.976-8.024l56-0.168c0.008,0,0.016,0,0.024,0
	c4.408,0,7.984,3.56,8,7.976c0.016,4.424-3.552,8.008-7.976,8.024l-56,0.168C24.016,428.168,24.008,428.168,24,428.168z"/>
<path d="M496,356h-8c-4.424,0-8-3.576-8-8s3.576-8,8-8h8c4.424,0,8,3.576,8,8S500.424,356,496,356z"/>
<path d="M496,396c-4.424,0-8-3.576-8-8v-96c0-4.424,3.576-8,8-8s8,3.576,8,8v96C504,392.424,500.424,396,496,396z"/>
<path d="M448,196H328c-4.424,0-8-3.584-8-8s3.576-8,8-8h120c4.424,0,8,3.584,8,8S452.424,196,448,196z"/>
<path d="M496.008,300c-3.024,0-5.92-1.72-7.272-4.648l-48-104c-1.848-4.008-0.104-8.768,3.912-10.616
	c4.032-1.848,8.768-0.096,10.616,3.912l48,104c1.848,4.008,0.104,8.768-3.912,10.616C498.264,299.768,497.128,300,496.008,300z"/>
<path d="M24,428.504c-4.424,0-8-3.576-8-8V388c0-4.424,3.576-8,8-8s8,3.576,8,8v32.504C32,424.92,28.424,428.504,24,428.504z"/>
<path d="M8,396c-4.424,0-8-3.576-8-8V284c0-4.424,3.576-8,8-8s8,3.576,8,8v104C16,392.424,12.424,396,8,396z"/>
<path d="M328,292H8c-4.424,0-8-3.576-8-8s3.576-8,8-8h320c4.424,0,8,3.576,8,8S332.424,292,328,292z"/>
<path d="M48,396H8c-4.424,0-8-3.576-8-8s3.576-8,8-8h40c4.424,0,8,3.576,8,8S52.424,396,48,396z"/>
<path d="M128,476c-30.872,0-56-25.128-56-56s25.128-56,56-56s56,25.128,56,56S158.872,476,128,476z M128,380
	c-22.056,0-40,17.944-40,40s17.944,40,40,40s40-17.944,40-40S150.056,380,128,380z"/>
<path d="M128,444c-13.232,0-24-10.768-24-24s10.768-24,24-24s24,10.768,24,24S141.232,444,128,444z M128,412c-4.416,0-8,3.584-8,8
	s3.584,8,8,8s8-3.584,8-8S132.416,412,128,412z"/>
<path d="M392,444c-13.232,0-24-10.768-24-24s10.768-24,24-24s24,10.768,24,24S405.232,444,392,444z M392,412c-4.416,0-8,3.584-8,8
	s3.584,8,8,8s8-3.584,8-8S396.416,412,392,412z"/>
<path d="M392,476c-30.872,0-56-25.128-56-56s25.128-56,56-56s56,25.128,56,56S422.872,476,392,476z M392,380
	c-22.056,0-40,17.944-40,40s17.944,40,40,40s40-17.944,40-40S414.056,380,392,380z"/>
<path d="M344.2,428H176c-4.424,0-8-3.576-8-8s3.576-8,8-8h168.2c4.424,0,8,3.576,8,8S348.624,428,344.2,428z"/>
<path d="M504,428h-64c-4.424,0-8-3.576-8-8s3.576-8,8-8h64c4.424,0,8,3.576,8,8S508.424,428,504,428z"/>
<path d="M496,300h-96c-4.424,0-8-3.576-8-8s3.576-8,8-8h96c4.424,0,8,3.576,8,8S500.424,300,496,300z"/>
<path d="M400,300c-22.056,0-40-17.944-40-40c0-4.416,3.576-8,8-8s8,3.584,8,8c0,13.232,10.768,24,24,24c4.424,0,8,3.576,8,8
	S404.424,300,400,300z"/>
<path d="M368,268c-4.424,0-8-3.576-8-8v-72c0-4.416,3.576-8,8-8s8,3.584,8,8v72C376,264.424,372.424,268,368,268z"/>
<path d="M328,292c-4.424,0-8-3.576-8-8V44c0-4.416,3.576-8,8-8s8,3.584,8,8v240C336,288.424,332.424,292,328,292z"/>
<path d="M216,292c-4.424,0-8-3.576-8-8V44c0-4.416,3.576-8,8-8s8,3.584,8,8v240C224,288.424,220.424,292,216,292z"/>
<path d="M120,292c-4.424,0-8-3.576-8-8V108c0-4.416,3.576-8,8-8s8,3.584,8,8v176C128,288.424,124.424,292,120,292z"/>
<path d="M168,236c-4.424,0-8-3.584-8-8v-24c0-4.416,3.576-8,8-8s8,3.584,8,8v24C176,232.416,172.424,236,168,236z"/>
<path d="M216,116h-96c-4.424,0-8-3.584-8-8s3.576-8,8-8h96c4.424,0,8,3.584,8,8S220.424,116,216,116z"/>
<path d="M168,132c-4.424,0-8-3.584-8-8v-16c0-4.416,3.576-8,8-8s8,3.584,8,8v16C176,128.416,172.424,132,168,132z"/>
<path d="M24,292c-4.424,0-8-3.576-8-8V164c0-4.416,3.576-8,8-8s8,3.584,8,8v120C32,288.424,28.424,292,24,292z"/>
<path d="M120,172H24c-4.424,0-8-3.584-8-8s3.576-8,8-8h96c4.424,0,8,3.584,8,8S124.424,172,120,172z"/>
<path d="M56,196c-4.424,0-8-3.584-8-8v-24c0-4.416,3.576-8,8-8s8,3.584,8,8v24C64,192.416,60.424,196,56,196z"/>
<path d="M88,196H56c-4.424,0-8-3.584-8-8s3.576-8,8-8h32c4.424,0,8,3.584,8,8S92.424,196,88,196z"/>
<path d="M88,196c-4.424,0-8-3.584-8-8v-24c0-4.416,3.576-8,8-8s8,3.584,8,8v24C96,192.416,92.424,196,88,196z"/>
<g>
</g>
<g>
</g>
<g>
</g>
<g>
</g>
<g>
</g>
<g>
</g>
<g>
</g>
<g>
</g>
<g>
</g>
<g>
</g>
<g>
</g>
<g>
</g>
<g>
</g>
<g>
</g>
<g>
</g>
</svg>
