<?xml version="1.0"?>
<svg xmlns="http://www.w3.org/2000/svg" viewBox="0 0 64 64" width="512" height="512"><g id="Trolley-2" data-name="Trolley"><path d="M32.954,55.479a3,3,0,1,0-2.433,3.475,3,3,0,0,0,2.433-3.475Zm-2.779,1.505a1,1,0,0,1-.35-1.968A.95.95,0,0,1,30,55a1,1,0,0,1,.175,1.984Z"/><path d="M37.473,47.559a.939.939,0,0,0,.174-.016l3.94-.694a1,1,0,0,0-.348-1.969l-3.939.694a1,1,0,0,0,.173,1.985Z"/><path d="M37.821,48.528a1,1,0,0,0,.173,1.985.95.95,0,0,0,.175-.016l3.939-.694a1,1,0,0,0-.347-1.969Z"/><path d="M36.664,31.454a.957.957,0,0,0,.175-.016l1.969-.346a1,1,0,1,0-.346-1.969l-1.97.347a1,1,0,0,0,.172,1.984Z"/><path d="M37.013,32.425a1,1,0,0,0,.173,1.984,1.031,1.031,0,0,0,.174-.015l1.97-.348a1,1,0,1,0-.348-1.969Z"/><path d="M62.152,48.3a1,1,0,0,0-.412-.647.994.994,0,0,0-.747-.165l-2.955.521-2.6-14.773a1,1,0,0,0-.412-.645.988.988,0,0,0-.747-.165l-.985.173L51.032,19.8a1,1,0,0,0-1.158-.811l-1.969.347-1.563-8.863a1,1,0,0,0-1.158-.811L33.366,11.743a1,1,0,0,0-.81,1.158l1.562,8.864-1.971.347a1,1,0,0,0-.81,1.159l2.258,12.8-.986.174a1,1,0,0,0-.81,1.158l2.549,14.46a5.953,5.953,0,0,0-2.3-1.5L26.182,17.071a5,5,0,0,0-4.79-4.129l-.538-3.054a5,5,0,0,0-5.792-4.056l-2.955.522-.174-.986a1,1,0,0,0-1.159-.81L4.867,5.6a3,3,0,0,0,.513,5.955,3.048,3.048,0,0,0,.528-.047l5.909-1.042a1,1,0,0,0,.811-1.158l-.174-.985L15.409,7.8a3.008,3.008,0,0,1,3.476,2.434l.694,3.94,6.569,37.254a5.99,5.99,0,1,0,9.486,6.624L58.1,54.092A5.006,5.006,0,0,0,62.152,48.3ZM42.691,24.314l-1.969.348-.348-1.969,1.97-.348Zm-1.91-10.833-1.97.348-.174-.984,1.97-.348Zm-6.083.058,1.97-.347.348,1.969a1,1,0,0,0,.983.826c.058,0,4.114-.71,4.114-.71a1,1,0,0,0,.811-1.158l-.348-1.969,1.97-.347,1.39,7.878-9.848,1.737Zm3.707,9.5.521,2.954a1,1,0,0,0,.983.826c.058,0,4.114-.71,4.114-.71a1,1,0,0,0,.811-1.158L44.313,22l4.923-.868,2.085,11.817L35.564,35.726,33.479,23.908ZM5.561,9.538a1.013,1.013,0,0,1-.748-.166,1,1,0,0,1,.4-1.8L10.138,6.7l.174.985h0l.173.983ZM40.836,36.827l.52,2.955a1,1,0,0,0,.985.826c.057,0,4.113-.711,4.113-.711a1,1,0,0,0,.811-1.158l-.521-2.954,2.739-.483,3.17-.559h0l.984-.174,2.431,13.787-19.7,3.474L33.941,38.043ZM45.122,38.1l-1.97.347-.347-1.97,1.969-.347ZM21.751,14.979a3.023,3.023,0,0,1,1.228.5,2.985,2.985,0,0,1,1.234,1.937l5.746,32.586a6.061,6.061,0,0,0-1,.087,5.977,5.977,0,0,0-.968.27Zm8.943,44.96a4,4,0,0,1-1.388-7.878,4.073,4.073,0,0,1,.7-.062,4,4,0,0,1,.685,7.94Zm27.054-7.816L35.995,55.959a6.052,6.052,0,0,0-.087-1,5.977,5.977,0,0,0-.27-.968l24.549-4.328A3.009,3.009,0,0,1,57.748,52.123Z"/><path d="M39.854,19.737a1,1,0,0,0-.348-1.968l-1.97.347a1,1,0,0,0,.173,1.985.95.95,0,0,0,.175-.016Z"/></g></svg>
