<svg width="191" height="55" xmlns="http://www.w3.org/2000/svg" xmlns:xlink="http://www.w3.org/1999/xlink"><defs><path id="a" d="M.013.085h56.249v54.122H.013z"/><path id="c" d="M.08.047h70.161v32.49H.081z"/></defs><g fill="none" fill-rule="evenodd"><mask id="b" fill="#fff"><use xlink:href="#a"/></mask><path d="M40.064 20.289h14.604V5.717H40.064v14.572zm-8.099 16.163H46.57V21.88H31.965v14.572zm-8.099 16.164H38.47V38.043H23.866v14.573zm-6.074-14.573h4.48v13.882l-4.48-2.98V38.042zM9.693 21.88h4.48v13.88l-4.48-2.98v-10.9zM1.594 2.367l4.48 2.98v14.251l-4.48-2.98V2.367zm7.06-.691l3.683 2.45H7.113L3.43 1.676h5.225zm11.783 2.45h-5.225l-3.683-2.45h5.225l3.683 2.45zm4.416 13.713l3.682 2.45h-4.669v-2.45h.987zM38.47 5.347v14.251l-4.48-2.98V2.367l4.48 2.98zM31.41 20.29l-3.683-2.45h5.224l3.683 2.45H31.41zm-23.741 0h14.603V5.717H7.67v14.572zm15.4 16.163h-7.301V21.88H30.37v14.572h-7.302zM41.05 1.676l3.683 2.45H39.51l-3.683-2.45h5.224zm11.782 2.45h-5.224l-3.683-2.45h5.224l3.683 2.45zm3.43.786a.806.806 0 00-.016-.145l-.008-.032a.742.742 0 00-.033-.105l-.02-.047a.773.773 0 00-.136-.2l-.03-.032a.808.808 0 00-.095-.078l-.015-.012-.002-.002L49.833.22a.798.798 0 00-.442-.134H33.193a.794.794 0 00-.6.272.792.792 0 00-.197.52v15.371h-8.53V4.911a.788.788 0 00-.015-.144l-.01-.035a.792.792 0 00-.031-.101l-.022-.049a.822.822 0 00-.043-.08c-.01-.014-.019-.029-.03-.043a.818.818 0 00-.06-.074c-.01-.011-.02-.023-.032-.034a.805.805 0 00-.09-.075c-.008-.005-.013-.011-.02-.016h-.002L17.437.217a.798.798 0 00-.442-.133H.797a.795.795 0 00-.6.272.793.793 0 00-.197.52v16.167c0 .266.133.514.355.662l6.07 4.037.002.002.002.001c.039.026.08.047.12.065l.039.015a.804.804 0 00.283.054H8.1v11.327c0 .266.133.514.355.662l6.07 4.038h.001l.003.003c.04.025.08.046.121.065l.036.014a.813.813 0 00.103.031l.038.009a.78.78 0 00.144.014h1.228V49.37c0 .266.133.515.355.662l6.07 4.038h.001l.003.003c.039.026.08.047.12.065l.037.014a.813.813 0 00.103.032l.038.008a.78.78 0 00.143.015h16.198c.44 0 .797-.357.797-.796V38.043h7.302c.44 0 .797-.356.797-.795V21.88h7.302c.44 0 .797-.356.797-.795V4.911z" fill="#141513" mask="url(#b)"/><path d="M62.225 33.79h6.595l4.857 12.895L78.49 33.79h6.64l-8.824 20.766h-5.302l-8.78-20.766M87.44 54.556h6.149V33.79h-6.15v20.766zm3.074-32.06c2.095 0 3.788 1.556 3.788 3.601 0 2.046-1.693 3.647-3.788 3.647-2.094 0-3.876-1.601-3.876-3.647 0-2.045 1.782-3.601 3.876-3.601z" fill="#141513"/><g transform="translate(97.412 22.449)"><mask id="d" fill="#fff"><use xlink:href="#c"/></mask><path d="M6.274 32.107H.08V11.34h6.194v3.024c1.114-2.09 3.565-3.469 6.016-3.469 4.679 0 7.62 2.89 7.62 8.805v12.406h-6.194V21.034c0-2.756-1.515-4.135-3.61-4.135-2.183 0-3.832 1.067-3.832 4.224v10.984m27.793-15.386c-2.63 0-4.813 1.957-4.813 4.936 0 3.068 2.184 5.025 4.813 5.025 2.585 0 4.813-2.046 4.813-5.025 0-3.113-2.273-4.936-4.813-4.936zm4.946 15.386v-2.58c-1.025 1.913-3.52 3.024-6.105 3.024-5.347 0-10.07-4.224-10.07-10.76 0-6.67 4.723-10.895 10.07-10.895 2.585 0 5.08 1.068 6.105 2.98V.045h6.15v32.06h-6.15zm24.99-12.229c-.312-2.534-2.63-3.557-4.367-3.557-1.738 0-4.1.934-4.634 3.557h9.001zm5.08 8.449c-2.095 3.113-5.971 4.224-9.492 4.224-5.97 0-10.873-4.358-10.873-10.894 0-6.536 4.902-10.76 10.873-10.76 5.927 0 10.65 4.402 10.65 10.938 0 .534-.044 1.378-.089 1.912h-15.24c.312 2.401 2.942 3.468 5.125 3.468 1.693 0 3.52-.622 4.545-1.956l4.5 3.068z" fill="#141513" mask="url(#d)"/></g><path d="M177.18 54.556h-6.193V33.79h6.194v3.024c1.114-2.09 3.564-3.469 6.015-3.469 4.68 0 7.62 2.89 7.62 8.805v12.406h-6.194V43.483c0-2.757-1.515-4.135-3.61-4.135-2.183 0-3.831 1.067-3.831 4.224v10.984" fill="#141513"/></g></svg>